<?xml version="1.0" encoding="UTF-8" standalone="no"?>
<svg width="128px" height="128px" viewBox="0 0 128 128" version="1.1" xmlns="http://www.w3.org/2000/svg" xmlns:xlink="http://www.w3.org/1999/xlink">
    <!-- Generator: Sketch 42 (36781) - http://www.bohemiancoding.com/sketch -->
    <title>Appmail plugin icon</title>
    <desc>Created with Sketch.</desc>
    <defs>
        <circle id="path-1" cx="64" cy="64" r="64"></circle>
        <mask id="mask-2" maskContentUnits="userSpaceOnUse" maskUnits="objectBoundingBox" x="0" y="0" width="128" height="128" fill="white">
            <use xlink:href="#path-1"></use>
        </mask>
    </defs>
    <g id="Page-1" stroke="none" stroke-width="1" fill="none" fill-rule="evenodd">
        <g id="Appmail-plugin-icon">
            <g id="appmail-icon">
                <use id="Oval" stroke="#EEEEEE" mask="url(#mask-2)" stroke-width="10" fill="#F27150" xlink:href="#path-1"></use>
                <g id="Group-2" stroke-width="1" transform="translate(30.000000, 23.000000)">
                    <path d="M25.0909091,11.3333333 L34.5,3 L43.9090909,11.3333333 L55.2071156,11.3333333 C58.2610459,11.3333333 60.72,13.8201614 60.72,16.8878194 L60.72,26.2222222 L69,33.5555556 L69,72.4609436 C69,75.5152394 66.5241696,78 63.4700781,78 L5.52992181,78 C2.45574654,78 0,75.52008 0,72.4609436 L0,33.5555556 L8.28,26.2222222 L8.28,16.8878194 C8.28,13.7984258 10.7482024,11.3333333 13.7928845,11.3333333 L25.0909091,11.3333333 L25.0909091,11.3333333 L25.0909091,11.3333333 Z" id="mail-envelope-open-path" fill="#D96447"></path>
                    <path d="M25.0909091,8.33333333 L34.5,0 L43.9090909,8.33333333 L55.2071156,8.33333333 C58.2610459,8.33333333 60.72,10.8201614 60.72,13.8878194 L60.72,23.2222222 L69,30.5555556 L69,69.4609436 C69,72.5152394 66.5241696,75 63.4700781,75 L5.52992181,75 C2.45574654,75 0,72.52008 0,69.4609436 L0,30.5555556 L8.28,23.2222222 L8.28,13.8878194 C8.28,10.7984258 10.7482024,8.33333333 13.7928845,8.33333333 L25.0909091,8.33333333 L25.0909091,8.33333333 L25.0909091,8.33333333 Z" id="mail-envelope-open-path" fill="#F27150"></path>
                    <path d="M35.378205,52.7531914 L30.695321,52.7777806 L40.02,52.7777806 L40.0750534,52.7285289 L40.0750534,52.7285289 L39.8007715,52.7299692 L57.96,36.3888211 L57.96,13.9128494 C57.96,12.3654921 56.7050034,11.1111111 55.2001098,11.1111111 L13.7998902,11.1111111 C12.2756449,11.1111111 11.04,12.3437103 11.04,13.8946554 L11.04,36.6667006 L29.120771,52.7230831 L35.378205,52.7531914 L35.378205,52.7531914 Z M25.0909091,8.33333333 L34.5,0 L43.9090909,8.33333333 L55.2071156,8.33333333 C58.2610459,8.33333333 60.72,10.8201614 60.72,13.8878194 L60.72,23.2222222 L69,30.5555556 L69,69.4609436 C69,72.5152394 66.5241696,75 63.4700781,75 L5.52992181,75 C2.45574654,75 0,72.52008 0,69.4609436 L0,30.5555556 L8.28,23.2222222 L8.28,13.8878194 C8.28,10.7984258 10.7482024,8.33333333 13.7928845,8.33333333 L25.0909091,8.33333333 L25.0909091,8.33333333 L25.0909091,8.33333333 Z M39.8208243,8.33333333 L34.5,3.61111164 L29.1791757,8.33333333 L39.8208243,8.33333333 L39.8208243,8.33333333 L39.8208243,8.33333333 Z M60.72,26.8813131 L64.86,30.5555556 L60.72,34.2592597 L60.72,26.8813131 L60.72,26.8813131 L60.72,26.8813131 Z M8.28,34.2592597 L4.14,30.5555556 L8.28,26.8813133 L8.28,34.2592597 L8.28,34.2592597 L8.28,34.2592597 Z M26.22,55.5555556 L6.9,72.2222222 L62.1,72.2222222 L42.78,55.5555556 L26.22,55.5555556 L26.22,55.5555556 Z M3.6290136,71.4588058 L24.84,52.8252494 L2.76,33.3333333 L2.76,51.3889442 L2.76,69.444555 C2.76,70.2309825 3.09397419,70.9496025 3.6290136,71.4588058 L3.6290136,71.4588058 L3.6290136,71.4588058 Z M65.2109864,34 L44,52.6335564 L66.08,72.1254725 L66.08,54.0698617 L66.08,36.0142508 C66.08,35.2278233 65.7460258,34.5092033 65.2109864,34 L65.2109864,34 L65.2109864,34 Z" id="mail-envelope-open" fill="#FFFFFF" fill-rule="nonzero"></path>
                    <path d="M26.1404824,25.9782492 C25.8245946,23.1639758 27.3465996,19 32.3720877,19 C36.1627415,19 36.7083659,21.4409514 36.6796489,22.7906539 C36.6509318,24.7434149 35.7319854,26.0356833 32.2859364,28.591503 C34.0951121,30.142225 37.110405,32.5257422 37.7708977,33.6744252 C39.0631661,30.515547 40.8723418,26.8684785 42.9112541,26.7823273 C44.6917127,26.696176 44.8640152,28.4479176 44.8640152,28.7638054 C44.8352981,30.515547 43.1697078,31.1186055 41.8774394,30.3145274 C41.360532,29.9986396 41.1595125,29.9699225 40.7287564,30.7165665 C40.1544149,31.6355129 39.2929027,33.0139325 38.6324099,34.6220887 L39.1493173,35.3974497 C39.1493173,35.3974497 40.4703027,37.06304 40.4990198,39.6762938 C40.5277369,42.2895476 39.1780344,46.8271065 33.7792243,46.9994089 C31.0223851,47.0278649 30.7639315,46.0230284 30.7639315,45.2474063 C30.7639315,44.5584576 30.9362339,43.7830966 32.1423511,43.7830966 C33.1187316,43.7830966 33.5782048,44.2138527 33.6356389,45.0466478 C33.6356389,45.5350992 33.7217902,45.9655942 34.3535658,45.8507259 C34.9853415,45.7361187 37.3975757,45.4489479 37.6273123,42.0310939 C37.7421806,39.8773133 36.5647806,38.9014549 36.1340244,38.2691571 C34.411,40.3944817 32.1710681,41.8016184 29.0121899,41.7441842 C25.4225556,41.6870112 24.0728531,39.0447792 24.0154189,37.0058669 C23.9579848,35.7423156 23.9005506,33.7608375 27.0307118,31.0042594 C27.5763362,30.6022203 28.1793947,30.0565959 28.1793947,30.0565959 C28.1793947,30.0565959 26.370219,28.218181 26.1404824,25.9782492 Z M32.2000463,34.2774838 C30.8216267,33.0426495 29.5580754,31.4919275 29.012451,30.9750202 C26.6576508,32.5831763 26.5714996,37.1491912 28.9550168,38.2688961 C31.7692902,39.5901426 34.1815244,38.3840254 35.3589245,37.3214937 C34.9279073,36.6320228 33.7507683,35.6556423 32.2000463,34.2774838 Z M33.6646171,23.22141 C33.6933342,22.1014441 33.3774463,20.2348342 31.5395536,20.2061171 C29.7016608,20.1774001 29.1847534,21.7281221 29.1847534,23.594732 C29.1847534,25.4900589 30.5918901,26.8110443 31.4246853,27.7587078 C33.1187316,25.9782492 33.6359,24.3413759 33.6646171,23.22141 Z" id="Shape" fill="#FFFFFF"></path>
                </g>
            </g>
        </g>
    </g>
</svg>